<svg width="128" height="128" viewBox="0 0 128 128" fill="none" xmlns="http://www.w3.org/2000/svg">
<g clip-path="url(#clip0_301_2)">
<rect width="128" height="128" fill="white"/>
<path d="M64 128C51.342 128 38.9683 124.246 28.4435 117.214C17.9188 110.182 9.71575 100.186 4.87174 88.4918C0.02773 76.7973 -1.23968 63.929 1.22977 51.5143C3.69922 39.0995 9.79463 27.6958 18.7452 18.7452C27.6958 9.79463 39.0995 3.69922 51.5143 1.22977C63.929 -1.23968 76.7973 0.02773 88.4918 4.87174C100.186 9.71575 110.182 17.9188 117.214 28.4435C124.246 38.9683 128 51.342 128 64C127.982 80.9682 121.233 97.2361 109.234 109.234C97.2361 121.233 80.9682 127.982 64 128V128ZM64 4.00003C52.1332 4.00003 40.5328 7.51897 30.6658 14.1119C20.7989 20.7047 13.1085 30.0755 8.56726 41.039C4.026 52.0026 2.8378 64.0666 5.15291 75.7055C7.46802 87.3443 13.1825 98.0353 21.5736 106.426C29.9648 114.818 40.6558 120.532 52.2946 122.847C63.9335 125.162 75.9975 123.974 86.961 119.433C97.9246 114.892 107.295 107.201 113.888 97.3342C120.481 87.4673 124 75.8669 124 64C123.982 48.0927 117.654 32.8423 106.406 21.5941C95.1578 10.3459 79.9073 4.01855 64 4.00003V4.00003Z" fill="#666666"/>
<path d="M95 44H33C32.4696 44 31.9609 43.7893 31.5858 43.4142C31.2107 43.0391 31 42.5304 31 42C31 41.4696 31.2107 40.9609 31.5858 40.5858C31.9609 40.2107 32.4696 40 33 40H95C95.5304 40 96.0391 40.2107 96.4142 40.5858C96.7893 40.9609 97 41.4696 97 42C97 42.5304 96.7893 43.0391 96.4142 43.4142C96.0391 43.7893 95.5304 44 95 44ZM95 66H33C32.4696 66 31.9609 65.7893 31.5858 65.4142C31.2107 65.0391 31 64.5304 31 64C31 63.4696 31.2107 62.9609 31.5858 62.5858C31.9609 62.2107 32.4696 62 33 62H95C95.5304 62 96.0391 62.2107 96.4142 62.5858C96.7893 62.9609 97 63.4696 97 64C97 64.5304 96.7893 65.0391 96.4142 65.4142C96.0391 65.7893 95.5304 66 95 66ZM95 88H33C32.4696 88 31.9609 87.7893 31.5858 87.4142C31.2107 87.0391 31 86.5304 31 86C31 85.4696 31.2107 84.9609 31.5858 84.5858C31.9609 84.2107 32.4696 84 33 84H95C95.5304 84 96.0391 84.2107 96.4142 84.5858C96.7893 84.9609 97 85.4696 97 86C97 86.5304 96.7893 87.0391 96.4142 87.4142C96.0391 87.7893 95.5304 88 95 88Z" fill="#666666"/>
</g>
<defs>
<clipPath id="clip0_301_2">
<rect width="128" height="128" fill="white"/>
</clipPath>
</defs>
</svg>
